#!OML:ASF H:\Terrain\Walking\May29\JustinRory\Justin.ASF
:FULLY-SPECIFIED
:DEGREES
301
root 12.2521 9.76623 8.09051 -47.3777 -65.4874 11.997
lowerback 40.6201 -0.342439 -9.05395
upperback 15.3218 -5.79813 -0.862533
thorax -1.7207 -4.13562 5.7202
lowerneck 11.6891 -19.7682 -20.7377
upperneck -3.13948 -29.0715 23.6999
head 3.81353 -15.1653 8.78845
rclavicle -6.03808e-015 -2.45499e-014
rhumerus -41.8907 29.4705 -100.736
rradius 62.8131
rwrist -15.5411
rhand -18.7444 31.935
rfingers 7.12502
rthumb 7.5519 2.0898
lclavicle -6.03808e-015 -2.45499e-014
lhumerus -38.6118 -9.06253 95.3725
lradius 47.0634
lwrist 21.0613
lhand -18.5859 24.1684
lfingers 7.12502
lthumb 7.70486 54.008
rfemur -55.8668 -11.0641 5.67316
rtibia 96.6222
rfoot 3.1638 16.3688
rtoes 16.6718
lfemur -54.2067 13.7835 -15.2989
ltibia 100.417
lfoot -6.2801 -19.995
ltoes -0.00831592
302
root 12.2466 9.77729 8.08577 -46.3878 -65.4771 10.9163
lowerback 40.6128 -0.394036 -8.63195
upperback 15.3255 -5.67709 -0.688343
thorax -1.75747 -4.0579 5.65568
lowerneck 11.9753 -19.9202 -21.0417
upperneck -3.41621 -29.3332 23.915
head 3.82542 -15.3183 8.86727
rclavicle -4.3012e-014 3.22031e-014
rhumerus -42.2294 29.3308 -100.58
rradius 63.1177
rwrist -15.9547
rhand -18.7471 33.8106
rfingers 7.12502
rthumb 7.54928 3.96533
lclavicle -4.3012e-014 3.22031e-014
lhumerus -38.7343 -9.47548 95.6387
lradius 47.2967
lwrist 21.2209
lhand -18.7385 24.2255
lfingers 7.12502
lthumb 7.55754 54.0705
rfemur -55.6692 -11.3705 6.03529
rtibia 96.5525
rfoot 3.02512 16.318
rtoes 16.5493
lfemur -54.2234 13.5134 -14.958
ltibia 100.388
lfoot -6.19865 -20.031
ltoes 1.25441
303
root 12.2396 9.77578 8.07239 -47.2084 -64.7498 11.632
lowerback 40.8544 -0.223298 -9.38472
upperback 15.2576 -5.78528 -0.799874
thorax -1.82183 -4.13577 5.95858
lowerneck 12.1267 -19.8678 -21.2607
upperneck -3.32469 -29.3434 24.0253
head 3.88292 -15.3329 8.93044
rclavicle 3.66012e-014 -1.30204e-014
rhumerus -42.7016 29.5983 -100.831
rradius 63.4017
rwrist -16.7637
rhand -18.827 33.778
rfingers 7.12502
rthumb 7.47216 3.92999
lclavicle 3.66012e-014 -1.30204e-014
lhumerus -38.97 -9.64553 95.6551
lradius 47.6575
lwrist 21.5106
lhand -18.9025 24.3636
lfingers 7.12502
lthumb 7.39922 54.2142
rfemur -55.5116 -11.8091 5.18739
rtibia 96.5977
rfoot 3.09014 16.6459
rtoes 16.4563
lfemur -54.0242 13.0508 -15.7556
ltibia 100.267
lfoot -6.05823 -19.8386
ltoes 0.542738
304
root 12.2416 9.77396 8.06133 -47.7728 -64.9998 12.4479
lowerback 40.8305 -0.0166362 -9.82649
upperback 15.1035 -5.70266 -0.903478
thorax -1.95994 -4.0915 6.0495
lowerneck 12.138 -19.7325 -21.3044
upperneck -3.21937 -29.1777 23.9181
head 3.86371 -15.2473 8.93715
rclavicle 3.37064e-014 2.4202e-014
rhumerus -43.4324 30.2006 -101.251
rradius 64.0228
rwrist -17.6783
rhand -18.1202 33.0023
rfingers 7.12502
rthumb 8.15433 3.17964
lclavicle 3.37064e-014 2.4202e-014
lhumerus -39.2691 -9.4875 95.5068
lradius 48.0031
lwrist 21.5448
lhand -18.9893 24.5378
lfingers 7.12502
lthumb 7.31551 54.3913
rfemur -55.9858 -11.3842 5.28745
rtibia 96.5848
rfoot 3.28054 16.6241
rtoes 16.6059
lfemur -54.1895 13.5366 -15.7789
ltibia 100.25
lfoot -6.06794 -19.875
ltoes -0.655535
305
root 12.2456 9.78411 8.05983 -47.15 -65.361 11.773
lowerback 40.9347 -0.0311714 -9.27347
upperback 15.0643 -5.50975 -0.815164
thorax -2.10959 -3.96158 5.81335
lowerneck 12.2655 -19.7824 -21.4799
upperneck -3.34436 -29.2707 23.9614
head 3.86039 -15.3014 8.96601
rclavicle 3.21783e-014 -7.90169e-015
rhumerus -43.4561 30.0002 -101.251
rradius 63.5133
rwrist -17.5421
rhand -18.5351 33.5392
rfingers 7.12502
rthumb 7.75392 3.70135
lclavicle 3.21783e-014 -7.90169e-015
lhumerus -39.5276 -9.82473 95.6881
lradius 48.3028
lwrist 21.4034
lhand -19.0612 24.6582
lfingers 7.12502
lthumb 7.24606 54.5141
rfemur -55.7698 -11.2601 5.83133
rtibia 96.427
rfoot 3.11266 16.4604
rtoes 16.5781
lfemur -54.1506 13.706 -15.2401
ltibia 100.231
lfoot -6.24628 -20.056
ltoes -0.904719
306
root 12.2462 9.792 8.06037 -46.4877 -65.6548 11.0157
lowerback 40.9234 0.0160789 -8.62318
upperback 15.1711 -5.1915 -0.697268
thorax -2.08249 -3.78675 5.50226
lowerneck 12.2835 -19.9549 -21.6135
upperneck -3.44272 -29.5285 24.2048
head 3.94788 -15.4375 8.99527
rclavicle 2.01021e-014 -1.23246e-014
rhumerus -42.4604 29.2237 -100.989
rradius 62.6502
rwrist -17.9678
rhand -19.6157 33.8702
rfingers 7.12502
rthumb 6.7108 3.99655
lclavicle 2.01021e-014 -1.23246e-014
lhumerus -39.3148 -10.0402 95.7283
lradius 48.1902
lwrist 21.081
lhand -18.965 24.5084
lfingers 7.12502
lthumb 7.33891 54.3611
rfemur -55.5024 -11.2892 6.32807
rtibia 96.2962
rfoot 2.86478 16.258
rtoes 15.9341
lfemur -54.0913 13.8725 -14.7328
ltibia 100.243
lfoot -6.39075 -20.3636
ltoes -1.48799
307
root 12.2357 9.79824 8.05377 -46.417 -65.9272 10.9934
lowerback 40.5797 0.207241 -8.59465
upperback 15.379 -4.91216 -0.633906
thorax -1.78379 -3.6804 5.43723
lowerneck 12.2957 -20.0254 -21.7243
upperneck -3.73853 -29.6278 24.6405
head 3.97546 -15.5075 9.11628
rclavicle 1.27719e-014 1.93318e-014
rhumerus -41.7655 28.8528 -100.657
rradius 61.8934
rwrist -19.3263
rhand -18.3005 35.5297
rfingers 7.12502
rthumb 7.98035 5.7004
lclavicle 1.27719e-014 1.93318e-014
lhumerus -38.7098 -9.47297 95.4259
lradius 47.6945
lwrist 20.5047
lhand -18.7757 24.0915
lfingers 7.12502
lthumb 7.5217 53.9378
rfemur -55.6323 -11.1804 6.63994
rtibia 96.3042
rfoot 2.74023 16.2839
rtoes 14.8723
lfemur -54.0634 14.28 -14.4495
ltibia 100.248
lfoot -6.33879 -20.5903
ltoes -2.30336
308
root 12.2251 9.80299 8.04741 -46.7259 -66.01 11.4877
lowerback 40.1734 0.366994 -8.78852
upperback 15.5384 -4.75669 -0.789544
thorax -1.49957 -3.62735 5.29462
lowerneck 12.4632 -20.0884 -21.4234
upperneck -4.31841 -29.6356 25.0267
head 3.80579 -15.5538 9.24093
rclavicle -8.96239e-015 -2.79246e-014
rhumerus -41.9958 28.9151 -100.786
rradius 62.2362
rwrist -19.9754
rhand -17.777 35.7915
rfingers 7.12502
rthumb 8.48559 5.98202
lclavicle -8.96239e-015 -2.79246e-014
lhumerus -38.3329 -9.25989 95.0248
lradius 47.5221
lwrist 20.2798
lhand -18.8324 23.8906
lfingers 7.12502
lthumb 7.46689 53.7388
rfemur -55.9556 -11.0077 6.60592
rtibia 96.3882
rfoot 2.83728 16.4101
rtoes 15.0982
lfemur -54.125 14.5945 -14.5269
ltibia 100.222
lfoot -6.19758 -20.6182
ltoes -2.48762
309
root 12.222 9.80225 8.04174 -46.5437 -65.9264 11.3862
lowerback 40.0728 0.335699 -8.75604
upperback 15.6019 -4.78414 -1.00076
thorax -1.4137 -3.63403 5.05655
lowerneck 12.6769 -20.1049 -20.9789
upperneck -4.87128 -29.5675 25.3624
head 3.59019 -15.5686 9.36205
rclavicle 4.48259e-014 -8.74653e-015
rhumerus -42.432 29.2281 -101.184
rradius 62.7103
rwrist -20.2942
rhand -18.3196 35.9056
rfingers 7.12502
rthumb 7.96191 6.0756
lclavicle 4.48259e-014 -8.74653e-015
lhumerus -38.2099 -9.46339 94.6457
lradius 47.6822
lwrist 20.4888
lhand -19.038 24.109
lfingers 7.12502
lthumb 7.2685 53.9642
rfemur -56.0849 -11.0582 6.59902
rtibia 96.4457
rfoot 2.9808 16.1774
rtoes 16.4988
lfemur -54.2343 14.5853 -14.5577
ltibia 100.195
lfoot -6.03874 -20.6852
ltoes -2.11723
310
root 12.2206 9.80327 8.03577 -46.146 -65.8763 10.9466
lowerback 40.1731 0.292168 -8.61228
upperback 15.6051 -4.79808 -1.06473
thorax -1.456 -3.62771 4.92472
lowerneck 12.6747 -20.1215 -20.864
upperneck -4.89362 -29.5826 25.4777
head 3.59129 -15.5849 9.38153
rclavicle 9.06955e-015 -4.84041e-014
rhumerus -42.9258 29.7507 -101.594
rradius 63.1822
rwrist -20.4209
rhand -19.9827 36.5355
rfingers 7.12502
rthumb 6.35647 6.65087
lclavicle 9.06955e-015 -4.84041e-014
lhumerus -38.165 -9.48984 94.4298
lradius 47.7532
lwrist 20.6141
lhand -19.1994 24.2391
lfingers 7.12502
lthumb 7.11266 54.0996
rfemur -55.9585 -11.1156 6.72546
rtibia 96.4309
rfoot 2.95325 15.7759
rtoes 17.5887
lfemur -54.2448 14.5235 -14.4201
ltibia 100.151
lfoot -6.0674 -20.7789
ltoes -2.50025
311
root 12.2164 9.79934 8.03215 -46.4625 -65.5914 11.2693
lowerback 40.2617 0.43876 -8.80778
upperback 15.6128 -4.69848 -1.07859
thorax -1.46861 -3.58674 4.97634
lowerneck 12.5242 -20.2625 -20.8418
upperneck -4.71681 -29.7643 25.3205
head 3.67464 -15.654 9.26907
rclavicle 4.2689e-014 -3.16068e-014
rhumerus -43.1759 29.881 -101.648
rradius 63.4055
rwrist -20.2568
rhand -21.931 35.3577
rfingers 7.12502
rthumb 4.47537 5.425
lclavicle 4.2689e-014 -3.16068e-014
lhumerus -38.1236 -9.42499 94.3688
lradius 47.8946
lwrist 20.4224
lhand -19.1314 24.2201
lfingers 7.12502
lthumb 7.17828 54.0784
rfemur -55.8456 -11.1395 6.36189
rtibia 96.4728
rfoot 2.93422 15.7491
rtoes 18.2276
lfemur -54.2256 14.3979 -14.7405
ltibia 100.096
lfoot -6.19526 -20.6826
ltoes -2.77164
312
root 12.2115 9.79665 8.02269 -47.4855 -64.9647 12.4028
lowerback 40.2902 0.694466 -9.56581
upperback 15.6056 -4.67544 -1.19692
thorax -1.42677 -3.60905 5.21978
lowerneck 12.4373 -20.3845 -20.7029
upperneck -4.68989 -29.8738 25.0167
head 3.64359 -15.6905 9.13782
rclavicle 3.37934e-015 2.75317e-014
rhumerus -38.7786 28.6885 -101.309
rradius 56.8213
rwrist -19.6245
rhand -22.8939 31.567
rfingers 7.12502
rthumb 3.54556 1.61679
lclavicle 3.37934e-015 2.75317e-014
lhumerus -38.0665 -9.07818 94.1672
lradius 48.1688
lwrist 20.027
lhand -18.8134 24.3073
lfingers 7.12502
lthumb 7.48526 54.1549
rfemur -55.9166 -11.2161 5.43826
rtibia 96.6505
rfoot 2.85864 16.0026
rtoes 18.5294
lfemur -54.1756 14.1884 -15.6155
ltibia 99.9753
lfoot -6.12297 -20.4535
ltoes -1.9574
313
root 12.2096 9.80239 8.00761 -47.8254 -64.8157 12.7908
lowerback 40.3341 0.820072 -9.86123
upperback 15.611 -4.64828 -1.32522
thorax -1.41858 -3.60592 5.22126
lowerneck 12.1744 -20.4394 -20.3562
upperneck -4.55215 -29.8564 24.6679
head 3.60562 -15.6552 8.97748
rclavicle 6.58971e-014 -9.74045e-015
rhumerus -37.9607 28.3448 -101.37
rradius 55.7587
rwrist -20.0335
rhand -22.0065 31.8117
rfingers 7.12502
rthumb 4.40248 1.87745
lclavicle 6.58971e-014 -9.74045e-015
lhumerus -37.9542 -8.72248 93.8184
lradius 48.3839
lwrist 19.8945
lhand -18.7898 24.4861
lfingers 7.12502
lthumb 7.50809 54.3329
rfemur -56.0232 -10.9958 5.19839
rtibia 96.784
rfoot 2.64221 15.866
rtoes 18.6695
lfemur -54.091 14.2397 -15.7898
ltibia 99.8738
lfoot -6.02045 -20.4414
ltoes -1.2551
314
root 12.213 9.81256 7.99781 -47.0874 -65.0094 11.9511
lowerback 40.4661 0.766722 -9.30266
upperback 15.6664 -4.52248 -1.35698
thorax -1.46479 -3.5137 4.87031
lowerneck 12.0204 -20.5717 -19.9997
upperneck -4.5083 -29.9761 24.6682
head 3.61478 -15.711 8.90057
rclavicle 8.11538e-014 1.27222e-014
rhumerus -37.392 27.9683 -101.42
rradius 55.1711
rwrist -20.6602
rhand -20.5202 37.5831
rfingers 7.12502
rthumb 5.83757 7.68356
lclavicle 8.11538e-014 1.27222e-014
lhumerus -37.7713 -8.88934 93.6023
lradius 48.4405
lwrist 20.015
lhand -18.9357 24.5849
lfingers 7.12502
lthumb 7.36723 54.4366
rfemur -56.0481 -10.8437 5.56047
rtibia 96.9907
rfoot 2.56783 15.6007
rtoes 18.8891
lfemur -54.0586 14.2019 -15.3016
ltibia 99.8243
lfoot -6.01562 -20.5515
ltoes -0.658821
